<svg width="18" height="18" viewBox="0 0 18 18" fill="none" xmlns="http://www.w3.org/2000/svg">
<path d="M8.59994 4.3547C6.16008 4.3547 4.19208 6.35573 4.19208 8.83655C4.19208 11.3174 6.16008 13.3184 8.59994 13.3184C11.0398 13.3184 13.0078 11.3174 13.0078 8.83655C13.0078 6.35573 11.0398 4.3547 8.59994 4.3547ZM8.59994 11.7503C7.02324 11.7503 5.73425 10.4436 5.73425 8.83655C5.73425 7.22948 7.0194 5.92276 8.59994 5.92276C10.1805 5.92276 11.4656 7.22948 11.4656 8.83655C11.4656 10.4436 10.1766 11.7503 8.59994 11.7503V11.7503ZM14.2162 4.17137C14.2162 4.75256 13.7559 5.21674 13.1881 5.21674C12.6165 5.21674 12.16 4.74866 12.16 4.17137C12.16 3.59407 12.6203 3.12599 13.1881 3.12599C13.7559 3.12599 14.2162 3.59407 14.2162 4.17137ZM17.1356 5.23234C17.0704 3.83201 16.7558 2.5916 15.7469 1.56963C14.7418 0.547661 13.5219 0.227808 12.1446 0.157596C10.7252 0.0756825 6.47082 0.0756825 5.0514 0.157596C3.67802 0.223907 2.45809 0.543761 1.44915 1.56573C0.440211 2.5877 0.129474 3.82811 0.0604211 5.22844C-0.0201404 6.67168 -0.0201404 10.9975 0.0604211 12.4407C0.125638 13.8411 0.440211 15.0815 1.44915 16.1035C2.45809 17.1254 3.67418 17.4453 5.0514 17.5155C6.47082 17.5974 10.7252 17.5974 12.1446 17.5155C13.5219 17.4492 14.7418 17.1293 15.7469 16.1035C16.752 15.0815 17.0666 13.8411 17.1356 12.4407C17.2162 10.9975 17.2162 6.67559 17.1356 5.23234V5.23234ZM15.3019 13.9893C15.0027 14.7538 14.4234 15.3428 13.6676 15.651C12.5359 16.1074 9.85056 16.002 8.59994 16.002C7.34932 16.002 4.6601 16.1035 3.53224 15.651C2.78033 15.3467 2.20106 14.7577 1.89799 13.9893C1.44915 12.8386 1.55273 10.1082 1.55273 8.83655C1.55273 7.56493 1.45298 4.83058 1.89799 3.68379C2.19722 2.91926 2.77649 2.33026 3.53224 2.02211C4.66394 1.56573 7.34932 1.67105 8.59994 1.67105C9.85056 1.67105 12.5398 1.56963 13.6676 2.02211C14.4196 2.32636 14.9988 2.91536 15.3019 3.68379C15.7507 4.83448 15.6472 7.56493 15.6472 8.83655C15.6472 10.1082 15.7507 12.8425 15.3019 13.9893Z" fill="white"/>
</svg>
